<mxfile host="Electron" agent="Mozilla/5.0 (Windows NT 10.0; Win64; x64) AppleWebKit/537.36 (KHTML, like Gecko) draw.io/24.7.17 Chrome/128.0.6613.36 Electron/32.0.1 Safari/537.36" version="24.7.17">
  <diagram name="Trang-1" id="Lv9vL0YbWq9vmcPxac1v">
    <mxGraphModel dx="1098" dy="988" grid="1" gridSize="10" guides="1" tooltips="1" connect="1" arrows="1" fold="1" page="1" pageScale="1" pageWidth="827" pageHeight="1169" math="0" shadow="0">
      <root>
        <mxCell id="0" />
        <mxCell id="1" parent="0" />
        <mxCell id="-w6DAYO3KvuYd9-jILJD-3" value="" style="edgeStyle=orthogonalEdgeStyle;rounded=0;orthogonalLoop=1;jettySize=auto;html=1;" parent="1" source="-w6DAYO3KvuYd9-jILJD-1" target="-w6DAYO3KvuYd9-jILJD-2" edge="1">
          <mxGeometry relative="1" as="geometry" />
        </mxCell>
        <mxCell id="-w6DAYO3KvuYd9-jILJD-1" value="START" style="ellipse;whiteSpace=wrap;html=1;" parent="1" vertex="1">
          <mxGeometry x="340" y="60" width="120" height="80" as="geometry" />
        </mxCell>
        <mxCell id="-w6DAYO3KvuYd9-jILJD-5" value="" style="edgeStyle=orthogonalEdgeStyle;rounded=0;orthogonalLoop=1;jettySize=auto;html=1;" parent="1" source="-w6DAYO3KvuYd9-jILJD-2" target="-w6DAYO3KvuYd9-jILJD-4" edge="1">
          <mxGeometry relative="1" as="geometry" />
        </mxCell>
        <mxCell id="-w6DAYO3KvuYd9-jILJD-2" value="Nhập a,b (a khác b)" style="shape=parallelogram;perimeter=parallelogramPerimeter;whiteSpace=wrap;html=1;fixedSize=1;" parent="1" vertex="1">
          <mxGeometry x="325" y="200" width="150" height="60" as="geometry" />
        </mxCell>
        <mxCell id="DYLwd8f3cQkV8WCpPHri-2" value="" style="edgeStyle=orthogonalEdgeStyle;rounded=0;orthogonalLoop=1;jettySize=auto;html=1;" edge="1" parent="1" source="-w6DAYO3KvuYd9-jILJD-4" target="DYLwd8f3cQkV8WCpPHri-1">
          <mxGeometry relative="1" as="geometry" />
        </mxCell>
        <mxCell id="DYLwd8f3cQkV8WCpPHri-4" value="" style="edgeStyle=orthogonalEdgeStyle;rounded=0;orthogonalLoop=1;jettySize=auto;html=1;" edge="1" parent="1" source="-w6DAYO3KvuYd9-jILJD-4" target="DYLwd8f3cQkV8WCpPHri-3">
          <mxGeometry relative="1" as="geometry" />
        </mxCell>
        <mxCell id="-w6DAYO3KvuYd9-jILJD-4" value="Kiểm tra a &amp;gt; b" style="rhombus;whiteSpace=wrap;html=1;" parent="1" vertex="1">
          <mxGeometry x="350" y="330" width="100" height="80" as="geometry" />
        </mxCell>
        <mxCell id="-w6DAYO3KvuYd9-jILJD-11" value="" style="edgeStyle=orthogonalEdgeStyle;rounded=0;orthogonalLoop=1;jettySize=auto;html=1;exitX=0.6;exitY=1;exitDx=0;exitDy=0;exitPerimeter=0;" parent="1" source="DYLwd8f3cQkV8WCpPHri-1" target="-w6DAYO3KvuYd9-jILJD-10" edge="1">
          <mxGeometry relative="1" as="geometry">
            <mxPoint x="220" y="400" as="sourcePoint" />
          </mxGeometry>
        </mxCell>
        <mxCell id="-w6DAYO3KvuYd9-jILJD-13" value="" style="edgeStyle=orthogonalEdgeStyle;rounded=0;orthogonalLoop=1;jettySize=auto;html=1;exitX=0.35;exitY=0.35;exitDx=0;exitDy=0;exitPerimeter=0;" parent="1" source="DYLwd8f3cQkV8WCpPHri-3" target="-w6DAYO3KvuYd9-jILJD-12" edge="1">
          <mxGeometry relative="1" as="geometry">
            <mxPoint x="570" y="470" as="sourcePoint" />
          </mxGeometry>
        </mxCell>
        <mxCell id="-w6DAYO3KvuYd9-jILJD-15" style="edgeStyle=orthogonalEdgeStyle;rounded=0;orthogonalLoop=1;jettySize=auto;html=1;entryX=0;entryY=0.5;entryDx=0;entryDy=0;" parent="1" source="-w6DAYO3KvuYd9-jILJD-10" target="-w6DAYO3KvuYd9-jILJD-14" edge="1">
          <mxGeometry relative="1" as="geometry" />
        </mxCell>
        <mxCell id="-w6DAYO3KvuYd9-jILJD-10" value="a &amp;gt; b" style="shape=parallelogram;perimeter=parallelogramPerimeter;whiteSpace=wrap;html=1;fixedSize=1;" parent="1" vertex="1">
          <mxGeometry x="170" y="525" width="120" height="60" as="geometry" />
        </mxCell>
        <mxCell id="-w6DAYO3KvuYd9-jILJD-16" style="edgeStyle=orthogonalEdgeStyle;rounded=0;orthogonalLoop=1;jettySize=auto;html=1;entryX=1;entryY=0.5;entryDx=0;entryDy=0;" parent="1" source="-w6DAYO3KvuYd9-jILJD-12" target="-w6DAYO3KvuYd9-jILJD-14" edge="1">
          <mxGeometry relative="1" as="geometry" />
        </mxCell>
        <mxCell id="-w6DAYO3KvuYd9-jILJD-12" value="a &amp;lt; b" style="shape=parallelogram;perimeter=parallelogramPerimeter;whiteSpace=wrap;html=1;fixedSize=1;" parent="1" vertex="1">
          <mxGeometry x="510" y="525" width="120" height="60" as="geometry" />
        </mxCell>
        <mxCell id="-w6DAYO3KvuYd9-jILJD-14" value="END" style="ellipse;whiteSpace=wrap;html=1;" parent="1" vertex="1">
          <mxGeometry x="340" y="630" width="120" height="80" as="geometry" />
        </mxCell>
        <mxCell id="DYLwd8f3cQkV8WCpPHri-1" value="Đúng" style="shape=waypoint;sketch=0;size=6;pointerEvents=1;points=[];fillColor=default;resizable=0;rotatable=0;perimeter=centerPerimeter;snapToPoint=1;labelBackgroundColor=default;" vertex="1" parent="1">
          <mxGeometry x="220" y="360" width="20" height="20" as="geometry" />
        </mxCell>
        <mxCell id="DYLwd8f3cQkV8WCpPHri-3" value="Sai" style="shape=waypoint;sketch=0;size=6;pointerEvents=1;points=[];fillColor=default;resizable=0;rotatable=0;perimeter=centerPerimeter;snapToPoint=1;labelBackgroundColor=default;" vertex="1" parent="1">
          <mxGeometry x="560" y="360" width="20" height="20" as="geometry" />
        </mxCell>
      </root>
    </mxGraphModel>
  </diagram>
</mxfile>
